<?xml version="1.0" encoding="utf-8"?>
<!-- Generator: Adobe Illustrator 24.1.1, SVG Export Plug-In . SVG Version: 6.00 Build 0)  -->
<svg version="1.1" id="Layer_1" xmlns="http://www.w3.org/2000/svg" xmlns:xlink="http://www.w3.org/1999/xlink" x="0px" y="0px"
	 viewBox="0 0 401 400.3" style="enable-background:new 0 0 401 400.3;" xml:space="preserve">
<style type="text/css">
	.st0{fill:#FFFFFF;stroke:#FFFFFF;stroke-width:5;stroke-miterlimit:10;}
</style>
<g transform="translate(1.4065934065934016 1.4065934065934016) scale(2.81 2.81)">
	<path class="st0" d="M81.9,32.4c4.2,0,8.1,0.2,10.3,0.4v10.5h-6.4c-8.8,0-9.9,5.2-9.9,9.8v10.3v2h2h13.6l-1.6,12h-12h-2v2v39H63.3
		v-39v-2h-2H49.6v-12h11.8h2v-2V51.5C63.3,39.6,70.3,32.4,81.9,32.4 M81.9,30.4c-12.2,0-20.6,7.5-20.6,21.1v11.9H47.6v16h13.8v41
		h16.5v-41h13.8l2.1-16H77.9V53.1c0-4.6,1.3-7.8,7.9-7.8h8.4V31C92.8,30.8,87.8,30.4,81.9,30.4L81.9,30.4z"/>
</g>
</svg>
