<?xml version="1.0" encoding="utf-8"?>
<!-- Generator: Adobe Illustrator 24.1.1, SVG Export Plug-In . SVG Version: 6.00 Build 0)  -->
<svg version="1.1" id="Layer_1" xmlns="http://www.w3.org/2000/svg" xmlns:xlink="http://www.w3.org/1999/xlink" x="0px" y="0px"
	 viewBox="0 0 256 256" style="enable-background:new 0 0 256 256;" xml:space="preserve">
<style type="text/css">
	.st0{fill:#FF4500;stroke:#FF4500;stroke-width:3;stroke-miterlimit:10;}
</style>
<g transform="translate(1.4065934065934016 1.4065934065934016) scale(2.81 2.81)">
	<path class="st0" d="M82.6,78.2H7.4c-4.1,0-7.4-3.3-7.4-7.4V19.2c0-4.1,3.3-7.4,7.4-7.4h75.2c4.1,0,7.4,3.3,7.4,7.4v51.7
		C90,74.9,86.7,78.2,82.6,78.2z M7.4,13.8c-3,0-5.4,2.4-5.4,5.4v51.7c0,3,2.4,5.4,5.4,5.4h75.2c3,0,5.4-2.4,5.4-5.4V19.2
		c0-3-2.4-5.4-5.4-5.4L7.4,13.8L7.4,13.8z"/>
	<path class="st0" d="M45,53.8c-5.1,0-9.9-2.1-13.3-5.9L2.1,15.4l1.5-1.3l29.6,32.5c3,3.3,7.4,5.2,11.9,5.2s8.8-1.9,11.9-5.2
		l29.6-32.5l1.5,1.3L58.3,47.9C54.9,51.6,50.1,53.8,45,53.8z"/>
	<rect x="-3.1" y="59.9" transform="matrix(0.7052 -0.7091 0.7091 0.7052 -38.0803 30.195)" class="st0" width="40.8" height="2"/>
	<rect x="71.7" y="40.5" transform="matrix(0.7089 -0.7053 0.7053 0.7089 -21.7677 69.0189)" class="st0" width="2" height="40.8"/>
</g>
</svg>
