<?xml version="1.0" encoding="utf-8"?>
<!-- Generator: Adobe Illustrator 24.1.1, SVG Export Plug-In . SVG Version: 6.00 Build 0)  -->
<svg version="1.1" id="Layer_1" xmlns="http://www.w3.org/2000/svg" xmlns:xlink="http://www.w3.org/1999/xlink" x="0px" y="0px"
	 viewBox="0 0 256 256" style="enable-background:new 0 0 256 256;" xml:space="preserve">
<style type="text/css">
	.st0{fill:#FF4500;stroke:#FF4500;stroke-width:3;stroke-miterlimit:10;}
</style>
<g transform="translate(1.4065934065934016 1.4065934065934016) scale(2.81 2.81)">
	<path class="st0" d="M16.5,3c0.1,0,0.1,0,0.2,0c0.1,0,0.3,0,0.4,0c0.2,0,0.3,0,0.5,0c0.1,0,0.3,0,0.4,0.1c0.2,0,0.3,0.1,0.5,0.1
		c0.1,0,0.3,0.1,0.4,0.1l0.1,0c0.1,0,0.3,0.1,0.4,0.1c0.1,0,0.2,0.1,0.4,0.1l0.1,0l0.1,0c0.1,0,0.2,0.1,0.3,0.1
		c0.1,0.1,0.2,0.1,0.4,0.2l0.1,0L20.9,4c0.1,0,0.1,0.1,0.2,0.1c0.1,0.1,0.2,0.1,0.4,0.2l0.1,0.1l0.2,0.1c0,0,0.1,0.1,0.1,0.1
		C22,4.7,22.2,4.8,22.3,5l0.1,0c0.1,0.1,0.1,0.1,0.2,0.2l0.1,0c0.3,0.2,0.5,0.4,0.7,0.6l8.2,8.2c0.2,0.2,0.4,0.5,0.6,0.7l0.1,0.1
		c0,0.1,0.1,0.1,0.1,0.2l0,0.1c0.1,0.1,0.2,0.3,0.3,0.4c0,0,0.1,0.1,0.1,0.1l0.1,0.2l0.1,0.1c0.1,0.1,0.1,0.2,0.2,0.4
		c0,0.1,0.1,0.1,0.1,0.2l0.1,0.2l0,0.1c0.1,0.1,0.1,0.2,0.2,0.4c0,0.1,0.1,0.2,0.1,0.3l0,0.1l0,0.1c0,0.1,0.1,0.2,0.1,0.4
		c0,0.1,0.1,0.3,0.1,0.4l0,0.1c0,0.1,0.1,0.3,0.1,0.4c0,0.2,0.1,0.3,0.1,0.5c0,0.1,0,0.3,0.1,0.4c0,0.2,0,0.3,0,0.5
		c0,0.1,0,0.3,0,0.4c0,0.2,0,0.4,0,0.5c0,0.1,0,0.2,0,0.4c0,0.2,0,0.4-0.1,0.6c0,0.1,0,0.2,0,0.3c0,0.2-0.1,0.4-0.1,0.6
		c0,0.1,0,0.2-0.1,0.3c0,0.2-0.1,0.4-0.2,0.6c0,0.1,0,0.1-0.1,0.2l0,0.1c-0.1,0.2-0.1,0.4-0.2,0.6l0,0.1L33.5,25
		c-0.1,0.2-0.2,0.4-0.3,0.6l-0.1,0.1c-0.1,0.3-0.3,0.4-0.4,0.6c0,0-0.1,0.1-0.1,0.1c-0.2,0.3-0.3,0.5-0.5,0.7
		c-0.2,0.3-0.4,0.5-0.6,0.6L26,33.3c-1.9,1.9-1.9,4.9,0,6.8L49.9,64c0.9,0.9,2.1,1.4,3.4,1.4s2.5-0.5,3.4-1.4l5.5-5.5
		c0.2-0.2,0.4-0.4,0.6-0.6c0.2-0.2,0.4-0.3,0.7-0.5c0,0,0.1-0.1,0.1-0.1c0.2-0.1,0.3-0.2,0.6-0.4l0.2-0.1c0.2-0.1,0.4-0.2,0.6-0.3
		l0.1-0.1l0.1,0c0.2-0.1,0.4-0.2,0.6-0.2l0.1,0c0,0,0.1,0,0.1-0.1c0.2-0.1,0.4-0.1,0.6-0.2c0.1,0,0.2,0,0.3-0.1
		c0.2,0,0.4-0.1,0.6-0.1c0.1,0,0.2,0,0.3,0c0.2,0,0.4,0,0.6-0.1c0.1,0,0.2,0,0.4,0c0.1,0,0.2,0,0.3,0c0.1,0,0.1,0,0.2,0
		c0.1,0,0.3,0,0.4,0c0.2,0,0.3,0,0.5,0c0.1,0,0.3,0,0.4,0.1c0.2,0,0.3,0.1,0.5,0.1c0.1,0,0.3,0.1,0.4,0.1l0.1,0
		c0.1,0,0.3,0.1,0.4,0.1c0.1,0,0.2,0.1,0.4,0.1l0.1,0l0.1,0c0.1,0,0.2,0.1,0.3,0.1c0.1,0.1,0.2,0.1,0.4,0.2l0.1,0l0.2,0.1
		c0.1,0,0.1,0.1,0.2,0.1c0.1,0.1,0.2,0.1,0.4,0.2l0.1,0.1l0.2,0.1c0,0,0.1,0.1,0.1,0.1c0.2,0.1,0.3,0.2,0.4,0.3l0.1,0
		c0.1,0.1,0.1,0.1,0.2,0.2l0.1,0c0.3,0.2,0.5,0.4,0.7,0.6l8.2,8.2c0.2,0.2,0.4,0.5,0.6,0.7l0.1,0.1c0,0.1,0.1,0.1,0.1,0.2l0,0.1
		c0.1,0.1,0.2,0.3,0.3,0.4c0,0,0.1,0.1,0.1,0.1l0.1,0.2l0.1,0.1c0.1,0.1,0.1,0.2,0.2,0.4c0,0.1,0.1,0.1,0.1,0.2l0.1,0.2l0,0.1
		c0.1,0.1,0.1,0.2,0.2,0.4c0,0.1,0.1,0.2,0.1,0.3l0,0.1l0,0.1c0,0.1,0.1,0.2,0.1,0.4c0,0.1,0.1,0.3,0.1,0.4l0,0.1
		c0,0.1,0.1,0.3,0.1,0.4c0,0.2,0.1,0.3,0.1,0.5c0,0.1,0,0.3,0.1,0.4c0,0.2,0,0.3,0,0.5c0,0.1,0,0.3,0,0.4c0,0.2,0,0.4,0,0.5
		c0,0.1,0,0.2,0,0.4c0,0.2,0,0.4-0.1,0.6c0,0.1,0,0.2,0,0.3c0,0.2-0.1,0.4-0.1,0.6c0,0.1,0,0.2-0.1,0.3c-0.1,0.2-0.1,0.4-0.2,0.6
		c0,0.1,0,0.1-0.1,0.2l0,0.1c-0.1,0.2-0.1,0.4-0.2,0.6l0,0.1l-0.1,0.1c-0.1,0.2-0.2,0.4-0.3,0.6l-0.1,0.1c-0.1,0.3-0.3,0.4-0.4,0.6
		c0,0-0.1,0.1-0.1,0.1c-0.2,0.3-0.3,0.5-0.5,0.7c-0.2,0.3-0.4,0.5-0.6,0.6l0,0l0,0c-4,4.2-10,6.5-17,6.5c-13,0-27.9-7.8-42.1-22.1
		C10.7,50.6,2.9,35.6,3,22.5C3.1,15.7,5.4,9.8,9.5,5.9l0,0l0,0c0.2-0.2,0.4-0.4,0.6-0.6c0.2-0.2,0.4-0.3,0.7-0.5
		c0,0,0.1-0.1,0.1-0.1c0.2-0.1,0.3-0.2,0.6-0.4l0.2-0.1C12,4.1,12.2,4,12.4,3.9l0.1-0.1l0.1,0c0.2-0.1,0.4-0.2,0.6-0.2l0.1,0
		c0,0,0.1,0,0.1-0.1c0.2-0.1,0.4-0.1,0.6-0.2c0.1,0,0.2,0,0.3-0.1c0.2,0,0.4-0.1,0.6-0.1c0.1,0,0.2,0,0.3,0c0.2,0,0.4,0,0.6-0.1
		c0.1,0,0.2,0,0.4,0C16.3,3,16.4,3,16.5,3 M16.5,0c-0.1,0-0.3,0-0.4,0c-0.2,0-0.3,0-0.5,0c-0.2,0-0.5,0-0.7,0.1
		c-0.1,0-0.3,0-0.4,0.1c-0.3,0-0.5,0.1-0.8,0.1c-0.1,0-0.3,0.1-0.4,0.1c-0.3,0.1-0.5,0.1-0.8,0.2c-0.1,0-0.2,0.1-0.3,0.1
		c-0.3,0.1-0.5,0.2-0.8,0.3c-0.1,0-0.2,0.1-0.3,0.1c-0.3,0.1-0.5,0.3-0.8,0.4c-0.1,0-0.1,0.1-0.2,0.1C9.8,1.9,9.5,2,9.3,2.2
		c0,0-0.1,0.1-0.1,0.1C8.9,2.5,8.6,2.7,8.3,3l0,0C8,3.2,7.7,3.4,7.4,3.7C-3.9,14.5-4.9,39.4,23,67c16.5,16.6,32,23,44.2,23
		c8.2,0,14.8-2.9,19.2-7.4c0.3-0.3,0.5-0.6,0.8-0.8l0,0c0.2-0.3,0.4-0.6,0.6-0.9c0,0,0.1-0.1,0.1-0.1c0.2-0.3,0.3-0.5,0.5-0.8
		c0-0.1,0.1-0.1,0.1-0.2c0.1-0.3,0.3-0.5,0.4-0.8c0-0.1,0.1-0.2,0.1-0.3c0.1-0.3,0.2-0.5,0.3-0.8c0-0.1,0.1-0.2,0.1-0.3
		c0.1-0.3,0.2-0.5,0.2-0.8c0-0.1,0.1-0.3,0.1-0.4c0.1-0.3,0.1-0.5,0.1-0.8c0-0.1,0-0.3,0.1-0.4c0-0.2,0.1-0.5,0.1-0.7
		c0-0.2,0-0.3,0-0.5c0-0.2,0-0.5,0-0.7c0-0.2,0-0.3,0-0.5c0-0.2,0-0.4-0.1-0.7c0-0.2,0-0.4-0.1-0.5c0-0.2-0.1-0.4-0.1-0.6
		c0-0.2-0.1-0.4-0.1-0.6c-0.1-0.2-0.1-0.4-0.2-0.6c-0.1-0.2-0.1-0.4-0.2-0.6c-0.1-0.2-0.1-0.4-0.2-0.5c-0.1-0.2-0.2-0.4-0.3-0.6
		c-0.1-0.2-0.2-0.3-0.2-0.5c-0.1-0.2-0.2-0.4-0.4-0.6c-0.1-0.1-0.2-0.3-0.3-0.4c-0.2-0.2-0.3-0.4-0.5-0.7c-0.1-0.1-0.2-0.2-0.3-0.3
		c-0.3-0.3-0.5-0.6-0.8-0.9l-8.2-8.2c-0.3-0.3-0.6-0.6-0.9-0.8c-0.1-0.1-0.2-0.2-0.3-0.3c-0.2-0.2-0.4-0.3-0.7-0.5
		c-0.1-0.1-0.3-0.2-0.4-0.3c-0.2-0.1-0.4-0.3-0.6-0.4C75,54,74.8,54,74.6,53.9c-0.2-0.1-0.4-0.2-0.6-0.3c-0.2-0.1-0.4-0.1-0.5-0.2
		c-0.2-0.1-0.4-0.1-0.6-0.2s-0.4-0.1-0.6-0.2c-0.2,0-0.4-0.1-0.6-0.1c-0.2,0-0.4-0.1-0.6-0.1c-0.2,0-0.4-0.1-0.5-0.1
		c-0.2,0-0.4,0-0.7-0.1c-0.2,0-0.3,0-0.5,0c-0.1,0-0.2,0-0.3,0c-0.1,0-0.3,0-0.4,0c-0.2,0-0.3,0-0.5,0c-0.2,0-0.5,0-0.7,0.1
		c-0.1,0-0.3,0-0.4,0.1c-0.3,0-0.5,0.1-0.8,0.1C66.2,53,66.1,53,66,53c-0.3,0.1-0.5,0.1-0.8,0.2c-0.1,0-0.2,0.1-0.3,0.1
		c-0.3,0.1-0.5,0.2-0.8,0.3c-0.1,0-0.2,0.1-0.3,0.1c-0.3,0.1-0.5,0.3-0.8,0.4c-0.1,0-0.1,0.1-0.2,0.1c-0.3,0.2-0.6,0.3-0.8,0.5
		c0,0-0.1,0.1-0.1,0.1c-0.3,0.2-0.6,0.4-0.9,0.7l0,0c-0.3,0.2-0.6,0.5-0.8,0.8l-5.5,5.5c-0.4,0.4-0.8,0.5-1.3,0.5
		c-0.5,0-0.9-0.2-1.3-0.5L28.1,38c-0.7-0.7-0.7-1.9,0-2.6l5.5-5.5c0.3-0.3,0.5-0.6,0.8-0.8l0,0c0.2-0.3,0.4-0.6,0.6-0.9
		c0,0,0.1-0.1,0.1-0.1c0.2-0.3,0.3-0.5,0.5-0.8c0-0.1,0.1-0.1,0.1-0.2c0.1-0.3,0.3-0.5,0.4-0.8c0-0.1,0.1-0.2,0.1-0.3
		c0.1-0.3,0.2-0.5,0.3-0.8c0-0.1,0.1-0.2,0.1-0.3c0.1-0.3,0.2-0.5,0.2-0.8c0-0.1,0.1-0.3,0.1-0.4c0.1-0.3,0.1-0.5,0.1-0.8
		c0-0.1,0-0.3,0.1-0.4c0-0.2,0.1-0.5,0.1-0.7c0-0.2,0-0.3,0-0.5c0-0.2,0-0.5,0-0.7c0-0.2,0-0.3,0-0.5c0-0.2,0-0.4-0.1-0.7
		c0-0.2,0-0.4-0.1-0.5c0-0.2-0.1-0.4-0.1-0.6c0-0.2-0.1-0.4-0.1-0.6c-0.1-0.2-0.1-0.4-0.2-0.6c-0.1-0.2-0.1-0.4-0.2-0.6
		c-0.1-0.2-0.1-0.4-0.2-0.5c-0.1-0.2-0.2-0.4-0.3-0.6C36,15.2,36,15,35.9,14.9c-0.1-0.2-0.2-0.4-0.4-0.6c-0.1-0.1-0.2-0.3-0.3-0.4
		c-0.2-0.2-0.3-0.4-0.5-0.7c-0.1-0.1-0.2-0.2-0.3-0.3c-0.3-0.3-0.5-0.6-0.8-0.9l-8.2-8.2c-0.3-0.3-0.6-0.6-0.9-0.8
		c-0.1-0.1-0.2-0.2-0.3-0.3c-0.2-0.2-0.4-0.3-0.7-0.5c-0.1-0.1-0.3-0.2-0.4-0.3c-0.2-0.1-0.4-0.3-0.6-0.4c-0.2-0.1-0.3-0.2-0.5-0.2
		c-0.2-0.1-0.4-0.2-0.6-0.3c-0.2-0.1-0.4-0.1-0.5-0.2c-0.2-0.1-0.4-0.1-0.6-0.2s-0.4-0.1-0.6-0.2c-0.2,0-0.4-0.1-0.6-0.1
		c-0.2,0-0.4-0.1-0.6-0.1c-0.2,0-0.4-0.1-0.5-0.1c-0.2,0-0.4,0-0.7-0.1c-0.2,0-0.3,0-0.5,0C16.7,0,16.6,0,16.5,0L16.5,0z"/>
	<path class="st0" d="M90,46.5h-3C87,22.5,67.5,3,43.5,3V0C69.1,0,90,20.9,90,46.5z"/>
	<path class="st0" d="M77.5,46.5h-3c0-17.1-13.9-31-31-31v-3C62.2,12.5,77.5,27.8,77.5,46.5z"/>
	<path class="st0" d="M65,46.5h-3C62,36.3,53.7,28,43.5,28v-3C55.4,25,65,34.6,65,46.5z"/>
</g>
</svg>
