<?xml version="1.0" encoding="utf-8"?>
<!-- Generator: Adobe Illustrator 24.1.1, SVG Export Plug-In . SVG Version: 6.00 Build 0)  -->
<svg version="1.1" id="Layer_1" xmlns="http://www.w3.org/2000/svg" xmlns:xlink="http://www.w3.org/1999/xlink" x="0px" y="0px"
	 viewBox="0 0 256 256" style="enable-background:new 0 0 256 256;" xml:space="preserve">
<style type="text/css">
	.st0{fill:#FDEDEA;}
</style>
<g transform="translate(1.4065934065934016 1.4065934065934016) scale(2.81 2.81)">
	<path class="st0" d="M69.3,53.2c2.7,0,5.3-0.5,7.7-1.5c-1.9,6.5-4.9,13.2-9,19.7c-1.6,2.4-3.2,4.7-4.9,6.9
		c6.7-3.6,13.3-9.8,18.5-17.9c5.8-9.2,8.6-18.9,8.4-27.1c0-0.3,0-0.5,0-0.8c0-3.9-1.1-7.5-2.9-10.6c0,0,0,0,0,0
		c-3.6-6.1-10.2-10.1-17.8-10.1c-11.4,0-20.7,9.3-20.7,20.7C48.6,43.9,57.8,53.2,69.3,53.2z"/>
	<path class="st0" d="M20.7,53.2c2.7,0,5.3-0.5,7.7-1.5c-1.9,6.5-4.9,13.2-9,19.7c-1.6,2.4-3.2,4.7-4.9,6.9
		c6.7-3.6,13.3-9.8,18.5-17.9c5.8-9.2,8.6-18.9,8.4-27.1c0-0.3,0-0.5,0-0.8c0-3.9-1.1-7.5-2.9-10.6c0,0,0,0,0,0
		c-3.6-6.1-10.2-10.1-17.8-10.1C9.3,11.7,0,21,0,32.5S9.3,53.2,20.7,53.2z"/>
</g>
</svg>
